<svg width="161" height="47" viewBox="0 0 161 47" fill="none" xmlns="http://www.w3.org/2000/svg">
<path d="M22.536 46.256C14.5573 46.256 8.648 43.9947 4.808 39.472C3.44267 37.8507 2.33333 35.696 1.48 33.008C0.626667 30.32 0.2 27.056 0.2 23.216C0.2 19.376 0.818667 15.9413 2.056 12.912C3.336 9.84 5.064 7.472 7.24 5.808C11.464 2.69333 16.5627 1.136 22.536 1.136C24.456 1.136 26.3333 1.28533 28.168 1.584C30.0027 1.84 31.368 2.11733 32.264 2.416L33.608 2.864L33.416 3.504C30.088 2.352 26.4613 1.776 22.536 1.776C18.0133 1.776 14.2373 3.248 11.208 6.192C8.904 8.368 7.28267 11.568 6.344 15.792C5.78933 18.1813 5.512 21.104 5.512 24.56C5.512 28.016 6.00267 31.216 6.984 34.16C7.96533 37.0613 9.07467 39.216 10.312 40.624C11.592 42.032 13.128 43.1627 14.92 44.016C16.712 44.8267 18.1413 45.296 19.208 45.424C20.2747 45.552 21.5333 45.616 22.984 45.616C24.4773 45.616 26.4613 45.4453 28.936 45.104V31.92H21.192V31.28H37V31.92H34.248V44.528C31.0053 45.68 27.1013 46.256 22.536 46.256ZM73.8265 1.2H74.6585V26.8C74.6585 33.4987 73.3358 38.4267 70.6905 41.584C68.0452 44.6987 64.5892 46.256 60.3225 46.256C57.6345 46.256 55.3518 46.0213 53.4745 45.552C51.5972 45.04 49.8265 44.1227 48.1625 42.8C44.7492 40.1547 43.0425 34.8213 43.0425 26.8V1.2H48.3545V26.736C48.3545 34.5013 49.5278 39.6853 51.8745 42.288C53.0692 43.568 54.3065 44.4427 55.5865 44.912C56.9092 45.3813 58.4878 45.616 60.3225 45.616C64.4185 45.616 67.6825 44.1227 70.1145 41.136C72.5892 38.1067 73.8265 33.3067 73.8265 26.736V1.2ZM82.0125 24.688C82.0125 16.9227 83.8898 11.0347 87.6445 7.024C91.4418 2.97066 96.3058 0.943996 102.237 0.943996C108.167 0.943996 112.882 2.69333 116.381 6.192C119.922 9.69066 121.693 15.28 121.693 22.96C121.693 30.64 119.815 36.4427 116.061 40.368C112.306 44.2933 107.293 46.256 101.021 46.256C95.6018 46.256 91.1645 44.6987 87.7085 41.584C85.9165 39.9627 84.5085 37.7227 83.4845 34.864C82.5032 31.9627 82.0125 28.5707 82.0125 24.688ZM102.045 1.584C97.7352 1.584 94.1938 3.504 91.4205 7.344C88.6898 11.184 87.3245 16.816 87.3245 24.24C87.3245 31.664 88.6258 37.0827 91.2285 40.496C93.8312 43.9093 97.2872 45.616 101.597 45.616C105.949 45.616 109.49 43.696 112.221 39.856C114.994 35.9733 116.381 30.3627 116.381 23.024C116.381 15.6427 115.058 10.224 112.413 6.768C109.81 3.312 106.354 1.584 102.045 1.584ZM125.626 46H124.858L143.994 1.2L144.698 0.879997L160.826 46H155.386L150.394 31.92H131.706L125.626 46ZM142.01 8.112L131.962 31.28H150.202L142.01 8.112Z" fill="black"/>
</svg>
