<svg width="430" height="430" viewBox="0 0 430 430" fill="none" xmlns="http://www.w3.org/2000/svg">
<path d="M216.126 58.1948L216.096 61.8248C216.096 62.6948 215.826 63.5048 214.746 63.5048C213.726 63.5048 213.456 62.6948 213.456 61.8248V49.8248C213.456 48.9548 213.726 48.1448 214.746 48.1448C215.826 48.1448 216.096 48.9548 216.096 49.8248V52.7648H221.076V50.4248C221.076 45.8048 218.376 44.7248 214.746 44.7248C211.446 44.7248 208.476 46.0748 208.476 50.9648V60.6848C208.476 65.5748 211.446 66.9248 214.746 66.9248C218.946 66.9248 221.076 65.0048 221.076 61.0148V58.1948H216.126Z" fill="#FF0000"/>
<path d="M235.375 59.8268L237.482 50.5119L237.542 50.5197L237.16 60.0612L235.375 59.8268ZM235.156 46.8175L228.762 67.5212L232.926 68.0681L234.416 62.9687L237.093 63.3202L236.971 68.5993L241.879 69.2438L241.938 47.7081L235.156 46.8175Z" fill="#FF0000"/>
<path d="M263.945 60.7261L264.813 57.48C265.735 54.0311 263.276 52.1903 260.032 51.3185C256.323 50.3222 253.481 51.0808 252.482 54.8196C250.7 61.4856 258.036 63.5496 256.789 68.2158C256.464 69.4331 255.878 69.6486 255.096 69.4384C254.198 69.1971 253.914 68.7482 254.239 67.5309L255.192 63.966L250.383 62.6739L249.36 66.4996C248.407 70.0645 251.113 71.9096 254.184 72.7347C258.211 73.8166 260.777 72.5801 261.815 68.6964C263.519 62.3202 256.431 59.3287 257.361 55.8508C257.632 54.8364 258.019 54.319 259.062 54.5992C260.018 54.8561 260.182 55.5213 259.91 56.5357L259.136 59.434L263.945 60.7261Z" fill="#FF0000"/>
<path d="M270.373 77.7978L274.267 68.3706L276.706 69.3831L272.811 78.8103L277.41 80.7204L285.566 60.9787L280.967 59.0687L277.943 66.3886L275.505 65.3761L278.529 58.0561L273.929 56.1461L265.774 75.8877L270.373 77.7978Z" fill="#FF0000"/>
<path d="M310.663 89.8944C312.327 91.1749 312.737 91.528 310.895 93.9342C309.546 95.6972 308.64 96.9305 306.67 95.1118L310.663 89.8944ZM300.863 94.5052L304.857 97.5784C309.042 100.798 310.977 102.022 314.551 97.3521C316.228 95.1603 317.365 93.0825 314.844 91.1434L314.972 90.9767C317.395 92.5001 319.236 91.2294 320.677 89.3473C323.794 85.2734 321.192 83.1953 317.839 80.6159L313.844 77.5427L300.863 94.5052ZM315.932 83.0094C317.973 84.3903 317.587 85.1909 316.31 86.8586C314.359 89.4077 313.813 88.3442 312.522 87.4644L315.932 83.0094Z" fill="#FF0000"/>
<path d="M325.519 104.477L332.849 98.3599L332.891 98.4024L326.79 105.752L325.519 104.477ZM333.251 94.0055L315.604 106.559L318.57 109.533L322.849 106.389L324.756 108.301L321.451 112.421L324.947 115.926L338.081 98.8484L333.251 94.0055Z" fill="#FF0000"/>
<path d="M339.66 121.082L336.765 123.271C336.075 123.802 335.269 124.081 334.613 123.224C333.993 122.414 334.471 121.705 335.161 121.175L344.671 113.858C345.361 113.327 346.167 113.048 346.787 113.858C347.443 114.715 346.966 115.424 346.276 115.954L343.946 117.747L346.972 121.702L348.827 120.275C352.489 117.458 351.704 114.655 349.498 111.772C347.492 109.152 344.617 107.616 340.741 110.598L333.037 116.525C329.162 119.507 329.897 122.689 331.902 125.309C334.455 128.645 337.271 129.165 340.434 126.732L342.669 125.013L339.66 121.082Z" fill="#FF0000"/>
<path d="M342.857 140.997L352.229 135.572L352.259 135.624L344.384 143.649L346.839 147.913L355.496 139.019L365.31 137.186L362.945 133.078L352.986 135.203L352.956 135.151L361.343 130.296L358.858 125.981L340.371 136.682L342.857 140.997Z" fill="#FF0000"/>
<path d="M357.35 175.613L366.767 173.083L366.976 173.866C367.208 174.735 366.716 175.799 365.268 176.188L360.893 177.364C360.081 177.582 358.896 178.024 358.21 178.83L359.504 183.67C360.189 182.865 361.367 182.393 362.178 182.175L366.495 181.015C369.451 180.221 369.956 178.625 369.394 176.291L369.452 176.276C370.584 178.767 372.551 179.388 375.129 178.695C379.475 177.528 379.211 174.679 377.987 170.1L376.693 165.26L356.065 170.802L357.35 175.613ZM375.024 170.865C375.612 173.067 374.973 173.581 373.061 174.095C371.12 174.616 370.303 174.463 369.722 172.289L375.024 170.865Z" fill="#FF0000"/>
<path d="M362.308 202.345L365.52 201.921L364.825 196.626L371.725 195.715L372.397 200.831L375.609 200.407L374.937 195.291L379.577 194.679L380.272 199.973L383.484 199.549L382.141 189.317L360.964 192.112L362.308 202.345Z" fill="#FF0000"/>
<path d="M381.019 213.867H362.899V218.847H381.019V222.327H384.259V210.387H381.019V213.867Z" fill="#FF0000"/>
<path d="M381.824 243.66L382.472 238.722L367.214 236.708C365.519 236.484 364.27 236.319 364.446 234.981C364.614 233.702 365.863 233.867 367.558 234.091L382.816 236.104L383.464 231.167L368.801 229.231C366.125 228.878 361.856 228.436 361.055 234.533C360.45 239.144 362.21 240.95 366.685 241.661L381.824 243.66Z" fill="#FF0000"/>
<path d="M358.062 252.29L367.478 254.819L367.269 255.602C367.036 256.471 366.08 257.146 364.631 256.757L360.256 255.582C359.445 255.364 358.197 255.153 357.202 255.507L355.909 260.347C356.904 259.993 358.159 260.175 358.971 260.393L363.287 261.553C366.243 262.347 367.476 261.218 368.153 258.915L368.211 258.93C367.949 261.656 369.343 263.18 371.921 263.872C376.267 265.04 377.459 262.44 378.683 257.861L379.976 253.021L359.348 247.479L358.062 252.29ZM375.735 257.038C375.147 259.24 374.337 259.365 372.425 258.851C370.484 258.329 369.852 257.787 370.433 255.613L375.735 257.038Z" fill="#FF0000"/>
<path d="M354.187 265.486L352.698 269.091L369.183 275.937L369.16 275.992L351.266 272.556L348.827 278.462L368.553 286.655L370.042 283.05L355.691 277.09L355.713 277.035L371.279 280.056L373.914 273.678L354.187 265.486Z" fill="#FF0000"/>
<path d="M349.325 313.194L349.288 313.242L333.081 304.407L330.419 307.885L343.125 321.294L343.089 321.342L328.632 310.22L325.897 313.793L342.827 326.818L347.185 321.124L336.429 310.2L336.466 310.153L349.774 317.741L354.222 311.928L337.293 298.904L334.868 302.072L349.325 313.194Z" fill="#FF0000"/>
<path d="M332.231 330.955C332.845 331.571 333.227 332.336 332.485 333.079C331.744 333.823 330.981 333.441 330.367 332.825L321.893 324.328C321.278 323.712 320.897 322.947 321.638 322.204C322.38 321.461 323.143 321.843 323.757 322.459L332.231 330.955ZM326.045 335.543C329.498 339.006 332.57 337.837 334.9 335.501C337.231 333.164 338.396 330.084 334.943 326.622L328.079 319.74C324.626 316.278 321.554 317.446 319.223 319.783C316.893 322.119 315.728 325.199 319.181 328.661L326.045 335.543Z" fill="#FF0000"/>
<path d="M310.562 328.598L307.471 330.976L318.319 345.151L318.272 345.188L304.499 333.263L299.434 337.159L312.416 354.121L315.507 351.743L306.062 339.403L306.11 339.366L318.075 349.768L323.544 345.56L310.562 328.598Z" fill="#FF0000"/>
<path d="M283.348 346.899L284.965 349.707L289.587 347.031L293.06 353.063L288.594 355.648L290.211 358.456L294.677 355.871L297.012 359.926L292.39 362.602L294.007 365.409L302.939 360.239L292.28 341.729L283.348 346.899Z" fill="#FF0000"/>
<path d="M272.89 351.722L268.291 353.632L271.292 360.896L272.54 374.996L277.029 373.132L275.477 364.583L275.533 364.56L280.464 371.705L284.953 369.841L275.891 358.986L272.89 351.722Z" fill="#FF0000"/>
<path d="M236.323 362.035L232.278 362.569L235.058 383.747L239.103 383.213L236.323 362.035Z" fill="#FF0000"/>
<path d="M198.152 378.603L194.673 378.144L196.735 362.439L191.798 361.787L189.017 382.965L193.181 383.515C193.784 381.688 196.081 381.477 197.746 381.697L198.152 378.603Z" fill="#FF0000"/>
<path d="M173.257 362.175C173.528 361.161 174.18 360.932 174.933 361.134C175.686 361.337 176.107 361.854 175.836 362.868L172.614 374.925C172.343 375.939 171.72 376.176 170.967 375.974C170.214 375.771 169.764 375.247 170.035 374.232L173.257 362.175ZM165.582 371.607C164.281 376.476 166.723 378.375 169.997 379.254C172.692 379.978 176.478 379.753 177.779 374.884L180.397 365.088C181.451 361.146 179.437 358.803 175.787 357.823C172.078 356.826 169.253 357.869 168.2 361.811L165.582 371.607Z" fill="#FF0000"/>
<path d="M154.497 355.444C154.898 354.474 155.573 354.332 156.293 354.631C157.014 354.93 157.364 355.498 156.963 356.468L152.197 368.003C151.796 368.973 151.149 369.126 150.429 368.827C149.708 368.528 149.331 367.949 149.732 366.979L154.497 355.444ZM145.659 363.793C143.735 368.451 145.909 370.653 149.04 371.954C151.616 373.024 155.399 373.295 157.323 368.637L161.195 359.265C162.753 355.495 161.062 352.908 157.572 351.459C154.025 349.986 151.089 350.65 149.531 354.421L145.659 363.793Z" fill="#FF0000"/>
<path d="M126.695 360.513L144.862 345.378L142.914 344.25L124.774 359.401L126.695 360.513ZM137.194 345.827C138.497 343.565 137.953 341.864 135.746 340.586C133.54 339.309 131.798 339.687 130.496 341.949L128.295 345.771C126.993 348.033 127.536 349.734 129.743 351.012C131.95 352.289 133.691 351.91 134.994 349.649L137.194 345.827ZM133.536 342.981C133.926 342.306 134.305 342.248 134.669 342.458C135.032 342.669 135.172 343.027 134.783 343.703L131.953 348.616C131.564 349.292 131.185 349.35 130.821 349.14C130.458 348.929 130.318 348.571 130.707 347.895L133.536 342.981ZM141.314 358.992C142.617 356.73 142.073 355.029 139.866 353.752C137.659 352.474 135.918 352.853 134.616 355.115L132.415 358.936C131.113 361.198 131.656 362.899 133.863 364.177C136.07 365.454 137.811 365.076 139.114 362.814L141.314 358.992ZM137.656 356.147C138.046 355.471 138.425 355.413 138.788 355.624C139.152 355.834 139.292 356.192 138.903 356.868L136.073 361.782C135.684 362.458 135.305 362.515 134.941 362.305C134.578 362.095 134.438 361.736 134.827 361.06L137.656 356.147Z" fill="#FF0000"/>
<path d="M115.119 324.731L111.072 320.674L98.1916 331.082L98.1492 331.039L108.424 318.019L104.314 313.898L87.26 327.046L90.3742 330.169L102.217 320.504L102.259 320.546L92.4716 332.271L96.2849 336.095L108.382 326.685L108.424 326.727L98.4247 338.24L102.026 341.851L115.119 324.731Z" fill="#FF0000"/>
<path d="M91.017 310.664L82.9508 315.772L82.9144 315.724L89.9231 309.235L91.017 310.664ZM81.9834 320.036L101.119 309.895L98.5665 306.559L93.9132 309.117L92.2722 306.973L96.0869 303.319L93.0785 299.388L77.8264 314.605L81.9834 320.036Z" fill="#FF0000"/>
<path d="M87.7132 290.557L79.275 295.442L78.8708 294.74C78.4217 293.96 78.6217 292.804 79.9199 292.052L83.8404 289.783C84.5674 289.362 85.598 288.627 86.0515 287.671L83.5514 283.33C83.0979 284.285 82.0823 285.047 81.3553 285.467L77.4867 287.707C74.8384 289.24 74.7631 290.913 75.9088 293.022L75.8569 293.053C74.1201 290.938 72.0603 290.848 69.7495 292.186C65.855 294.44 66.8468 297.124 69.2121 301.232L71.7122 305.574L90.1983 294.873L87.7132 290.557ZM71.8754 299.725C70.7376 297.749 71.222 297.087 72.9356 296.095C74.6752 295.088 75.504 295.025 76.6267 296.975L71.8754 299.725Z" fill="#FF0000"/>
<path d="M79.0188 273.248L70.0145 276.987L69.7052 276.239C69.3615 275.407 69.7105 274.287 71.0958 273.712L75.2794 271.975C76.0551 271.653 77.173 271.058 77.7473 270.17L75.8344 265.54C75.26 266.428 74.1537 267.05 73.3779 267.372L69.2497 269.086C66.4238 270.26 66.131 271.908 66.9919 274.15L66.9365 274.173C65.49 271.85 63.4592 271.491 60.9934 272.515C56.8376 274.241 57.471 277.032 59.2809 281.413L61.1939 286.043L80.9203 277.851L79.0188 273.248ZM62.1183 280.267C61.2478 278.159 61.8144 277.567 63.643 276.807C65.4993 276.036 66.3294 276.081 67.1885 278.161L62.1183 280.267Z" fill="#FF0000"/>
<path d="M70.6285 247.389L67.4995 248.23L68.8782 253.389L62.1565 255.195L60.8243 250.21L57.6952 251.05L59.0275 256.035L54.5077 257.25L53.129 252.091L50 252.931L52.6644 262.901L73.293 257.36L70.6285 247.389Z" fill="#FF0000"/>
<path d="M69.4459 241.576L68.9381 237.709L51.2417 240.045L51.2338 239.986L68.4499 233.991L67.618 227.656L46.4417 230.451L46.9495 234.318L62.3558 232.284L62.3636 232.344L47.3713 237.53L48.2696 244.372L69.4459 241.576Z" fill="#FF0000"/>
<path d="M66.749 216.639V211.659H58.889L45.389 207.429V212.289L53.879 214.119V214.179L45.389 216.009V220.869L58.889 216.639H66.749Z" fill="#FF0000"/>
<path d="M55.8445 173.89C55.0043 173.664 54.2918 173.193 54.5628 172.179C54.8339 171.164 55.6859 171.113 56.5261 171.339L68.1152 174.453C68.9554 174.678 69.6679 175.149 69.3969 176.164C69.1258 177.178 68.2738 177.229 67.4336 177.003L55.8445 173.89ZM58.9129 166.824C54.1903 165.555 52.112 168.103 51.26 171.291C50.4079 174.479 50.9372 177.728 55.6597 178.997L65.0469 181.518C69.7694 182.787 71.8477 180.239 72.6997 177.051C73.5518 173.863 73.0225 170.614 68.3 169.346L58.9129 166.824Z" fill="#FF0000"/>
<path d="M75.8126 165.079L77.3017 161.474L60.8168 154.628L60.8397 154.573L78.7336 158.009L81.1735 152.103L61.447 143.91L59.9579 147.515L74.3094 153.475L74.2865 153.53L58.7207 150.509L56.0861 156.887L75.8126 165.079Z" fill="#FF0000"/>
<path d="M89.9712 119.391C91.2475 117.724 91.5995 117.313 94.001 119.161C95.7605 120.514 96.9914 121.423 95.1785 123.397L89.9712 119.391ZM94.5771 129.218L97.6402 125.216C100.849 121.023 102.068 119.084 97.408 115.499C95.2205 113.816 93.1471 112.675 91.2144 115.2L91.048 115.072C92.5661 112.644 91.2972 110.797 89.4188 109.352C85.3529 106.224 83.2815 108.832 80.7107 112.191L77.6476 116.193L94.5771 129.218ZM83.0995 114.105C84.4757 112.06 85.2747 112.447 86.9391 113.728C89.4833 115.685 88.4227 116.232 87.5459 117.525L83.0995 114.105Z" fill="#FF0000"/>
<path d="M109.505 111.462L102.62 104.559L103.192 103.985C103.828 103.348 104.993 103.242 106.052 104.304L109.251 107.511C109.844 108.106 110.819 108.913 111.857 109.104L115.395 105.557C114.357 105.366 113.361 104.58 112.768 103.985L109.611 100.82C107.45 98.6539 105.819 99.015 104.082 100.672L104.04 100.629C105.628 98.399 105.184 96.3811 103.298 94.4906C100.12 91.3045 97.7899 92.9613 94.4426 96.3174L90.9046 99.8646L105.989 114.988L109.505 111.462ZM96.5823 98.5052C98.1924 96.8909 98.9551 97.1882 100.353 98.5901C101.773 100.013 102.048 100.799 100.459 102.392L96.5823 98.5052Z" fill="#FF0000"/>
<path d="M119.844 90.943L114.754 82.8604L114.802 82.8238L121.271 89.8454L119.844 90.943ZM110.501 81.8933L120.605 101.069L123.934 98.5083L121.385 93.8452L123.525 92.1988L127.168 96.0204L131.091 93.0021L115.922 77.7225L110.501 81.8933Z" fill="#FF0000"/>
<path d="M134.995 90.4136L138.37 88.4597L129.463 72.991L129.515 72.961L141.616 86.581L147.146 83.3797L136.487 64.8693L133.112 66.8232L140.866 80.29L140.814 80.3201L130.308 68.4464L124.336 71.9031L134.995 90.4136Z" fill="#FF0000"/>
<path d="M152.594 80.7189L157.331 78.7514C163.122 76.3466 163.314 73.6681 161.767 69.925L158.858 62.8823C156.418 56.9765 154.329 56.8696 149.176 59.0097L144.438 60.9773L152.594 80.7189ZM150.205 61.8954C152.533 60.9289 152.884 61.4651 153.972 64.0992L157.329 72.2232C158.107 74.1086 158.269 75.0487 156.024 75.9807L150.205 61.8954Z" fill="#FF0000"/>
<path d="M180.312 56.8957L179.445 53.6496C178.523 50.2006 175.476 49.8387 172.231 50.7105C168.523 51.7068 166.44 53.7885 167.439 57.5273C169.22 64.1934 176.603 62.3033 177.85 66.9695C178.175 68.1868 177.775 68.6669 176.993 68.8771C176.095 69.1184 175.625 68.8718 175.3 67.6545L174.347 64.0896L169.538 65.3817L170.56 69.2074C171.513 72.7723 174.776 73.014 177.847 72.1889C181.874 71.107 183.48 68.7496 182.442 64.8659C180.738 58.4897 173.108 59.4524 172.179 55.9744C171.907 54.96 171.984 54.3181 173.027 54.0379C173.983 53.781 174.457 54.2751 174.728 55.2895L175.503 58.1877L180.312 56.8957Z" fill="#FF0000"/>
</svg>
